HIERARCHY
ROOT root
{
	OFFSET 0.000000 0.000000 0.000000
	CHANNELS 6 Xposition Yposition Zposition Zrotation Yrotation Xrotation
	JOINT lhip
	{
		OFFSET 0.058581 -0.082280 -0.017664
		CHANNELS 3 Zrotation Yrotation Xrotation
		JOINT lknee
		{
			OFFSET 0.043451 -0.386469 0.008037
			CHANNELS 3 Zrotation Yrotation Xrotation
			JOINT lankle
			{
				OFFSET -0.014790 -0.426874 -0.037428
				CHANNELS 3 Zrotation Yrotation Xrotation
				JOINT ltoe
				{
					OFFSET 0.041054 -0.060286 0.122042
					CHANNELS 3 Zrotation Yrotation Xrotation
					End Site
					{
						OFFSET 0.000000 0.000000 0.000000
					}
				}
			}
		}
	}
	JOINT rhip
	{
		OFFSET -0.060310 -0.090513 -0.013543
		CHANNELS 3 Zrotation Yrotation Xrotation
		JOINT rknee
		{
			OFFSET -0.043257 -0.383688 -0.004843
			CHANNELS 3 Zrotation Yrotation Xrotation
			JOINT rankle
			{
				OFFSET 0.019056 -0.420046 -0.034562
				CHANNELS 3 Zrotation Yrotation Xrotation
				JOINT rtoe
				{
					OFFSET -0.034840 -0.062106 0.130323
					CHANNELS 3 Zrotation Yrotation Xrotation
					End Site
					{
						OFFSET 0.000000 0.000000 0.000000
					}
				}
			}
		}
	}
	JOINT lowerback
	{
		OFFSET 0.004439 0.124404 -0.038385
		CHANNELS 3 Zrotation Yrotation Xrotation
		JOINT upperback
		{
			OFFSET 0.004488 0.137956 0.026820
			CHANNELS 3 Zrotation Yrotation Xrotation
			JOINT chest
			{
				OFFSET -0.002265 0.056032 0.002855
				CHANNELS 3 Zrotation Yrotation Xrotation
				JOINT lowerneck
				{
					OFFSET -0.013390 0.211636 -0.033468
					CHANNELS 3 Zrotation Yrotation Xrotation
					JOINT upperneck
					{
						OFFSET 0.010113 0.088937 0.050410
						CHANNELS 3 Zrotation Yrotation Xrotation
						End Site
						{
							OFFSET 0.000000 0.000000 0.000000
						}
					}
				}
				JOINT lclavicle
				{
					OFFSET 0.071702 0.114000 -0.018898
					CHANNELS 3 Zrotation Yrotation Xrotation
					JOINT lshoulder
					{
						OFFSET 0.122921 0.045205 -0.019046
						CHANNELS 3 Zrotation Yrotation Xrotation
						JOINT lelbow
						{
							OFFSET 0.255332 -0.015649 -0.022946
							CHANNELS 3 Zrotation Yrotation Xrotation
							JOINT lwrist
							{
								OFFSET 0.265709 0.012698 -0.007375
								CHANNELS 3 Zrotation Yrotation Xrotation
								End Site
								{
									OFFSET 0.000000 0.000000 0.000000
								}
							}
						}
					}
				}
				JOINT rclavicle
				{
					OFFSET -0.082954 0.112472 -0.023707
					CHANNELS 3 Zrotation Yrotation Xrotation
					JOINT rshoulder
					{
						OFFSET -0.113228 0.046853 -0.008472
						CHANNELS 3 Zrotation Yrotation Xrotation
						JOINT relbow
						{
							OFFSET -0.260127 -0.014369 -0.031269
							CHANNELS 3 Zrotation Yrotation Xrotation
							JOINT rwrist
							{
								OFFSET -0.269108 0.006794 -0.006027
								CHANNELS 3 Zrotation Yrotation Xrotation
								End Site
								{
									OFFSET 0.000000 0.000000 0.000000
								}
							}
						}
					}
				}
			}
		}
	}
}
MOTION
Frames: 17
Frame Time: 0.033333
0.348093 0.258273 0.996587 87.875268 -3.277921 85.167912 -7.131231 -4.858389 -5.023813 -4.705664 -9.270965 16.420924 10.411762 8.321767 -10.067997 0.000000 -0.000000 0.000000 -2.164495 1.482726 -18.237910 0.044304 -2.398466 62.024188 0.518170 -15.199251 3.762409 0.000000 -0.000000 0.000000 -1.847587 -0.669648 9.433058 3.908343 -2.647570 -0.763828 -1.938641 -3.188285 6.324707 -0.569486 0.766699 8.445154 -4.270670 2.532782 12.338536 -27.123348 16.774914 -0.540084 -54.611753 3.408081 0.218306 9.766428 -31.625582 1.934092 1.247443 -2.654023 -2.347254 27.832195 -14.996320 -4.779753 58.382804 -1.171051 11.847398 -85.436410 55.623584 -85.620173 -6.720854 6.963575 -39.592815 
0.390462 0.257793 1.000336 88.745487 -2.726418 85.152628 -6.806478 -4.026836 -0.980018 -4.498147 -10.559264 13.937763 10.177473 8.016141 -11.504298 0.000000 -0.000000 0.000000 -1.917063 2.188030 -21.516936 0.608483 -4.261249 57.106702 0.944794 -14.454747 -0.592107 0.000000 -0.000000 0.000000 -1.493310 -1.898043 9.479274 4.245397 -2.764532 -0.802738 -1.878601 -3.338422 5.903803 0.295453 2.746593 8.273226 -5.257525 2.120726 12.778733 -25.733405 16.614992 0.589209 -55.543250 2.611587 0.987938 10.788527 -35.579636 2.989015 2.154715 -2.798034 -4.604233 27.668866 -14.773928 -4.941343 57.452247 0.964782 12.115956 -95.509846 56.473401 -86.455759 -4.812446 8.736644 -30.331484 
0.431143 0.256971 1.001467 89.866946 -2.095826 84.787665 -5.891648 -2.090672 2.790946 -4.493785 -11.860111 12.436750 9.311506 6.360844 -13.561332 0.000000 -0.000000 0.000000 -1.539131 2.134394 -23.593240 -0.444797 -6.658094 49.783355 2.749351 -12.472875 -4.161626 0.000000 -0.000000 0.000000 -0.926540 -2.596619 9.825836 4.424677 -3.023221 0.384696 -1.940271 -3.704652 5.182740 2.326043 5.148545 7.361949 -7.031702 0.823748 12.532230 -25.256238 15.871275 0.807909 -54.677429 1.366746 3.590402 12.530718 -39.364746 3.171948 2.828656 -3.868762 -8.552007 28.714876 -14.322112 -7.164193 55.842319 4.459339 14.222426 -101.730825 56.660289 -82.913550 -1.513688 10.577126 -19.560066 
0.471387 0.256691 0.998326 91.554787 -1.631460 85.415939 -5.259165 -1.812906 5.199158 -4.368045 -12.625192 11.504131 8.727258 5.700368 -15.104273 0.000000 -0.000000 0.000000 -1.684345 1.754413 -25.598628 -0.755069 -9.449118 40.014510 3.373453 -12.449202 -5.279404 0.000000 -0.000000 0.000000 -0.341292 -3.174067 9.443287 4.367614 -3.545998 0.368175 -1.621188 -3.849682 4.534700 2.580938 5.442417 6.929299 -6.575567 0.369676 12.420703 -24.395661 14.046309 1.612020 -53.977625 0.304112 4.423946 13.455062 -42.207971 2.963585 2.655759 -4.247302 -9.678475 28.440156 -12.738035 -7.116525 53.717705 7.217461 13.818705 -107.181495 58.387635 -82.718442 0.426610 11.647823 -10.937785 
0.509664 0.256500 0.992731 92.612740 -1.618767 86.098238 -5.009905 -0.665695 6.962918 -4.324908 -13.267662 11.621793 7.900878 5.471877 -16.903755 0.000000 -0.000000 0.000000 -1.741499 0.900514 -26.722058 -0.789666 -11.493009 28.066030 4.076635 -12.416790 -2.802102 0.000000 -0.000000 0.000000 0.063554 -3.615281 9.965164 3.870520 -3.311966 -0.368708 -1.352974 -3.812459 4.105492 2.625170 5.357404 5.704771 -5.806131 0.082288 12.601075 -23.593704 12.363534 1.501763 -52.703766 -1.403090 4.931651 13.206551 -44.180511 3.796770 2.762100 -5.087031 -9.670298 28.018195 -10.752199 -7.199650 51.925713 9.011124 14.118016 -109.664145 60.326698 -82.088734 1.028487 11.391133 -4.132441 
0.551014 0.255698 0.984790 93.552526 -1.921739 87.016249 -4.831167 -0.077805 8.651968 -4.560576 -13.566353 11.582357 8.174844 5.001773 -18.263276 0.000000 -0.000000 0.000000 -1.366767 -0.630037 -27.032423 -0.236121 -11.218030 15.098711 4.363788 -11.664950 1.720531 0.000000 -0.000000 0.000000 0.289805 -3.306431 9.075122 3.332476 -3.263951 -0.044105 -1.147669 -3.650726 3.492591 2.403966 4.521619 4.828608 -4.958491 0.028632 12.616911 -22.891651 10.216199 1.536497 -51.409468 -3.727273 5.631693 13.482636 -44.929570 3.692850 3.804461 -5.981352 -9.054415 27.359413 -8.608476 -6.243937 50.238565 10.038448 14.488146 -108.220817 62.996333 -78.734180 1.672407 12.658782 0.548586 
0.591816 0.253673 0.976507 95.061623 -2.169421 87.977567 -4.281150 -0.069244 9.475169 -5.319441 -14.056399 13.050289 8.274879 4.690043 -19.537211 0.000000 -0.000000 0.000000 -1.090971 -1.592013 -27.006795 -0.269384 -10.209711 4.556551 5.389128 -11.305166 0.659392 0.000000 -0.000000 0.000000 0.528403 -2.936251 8.697099 2.833642 -3.444911 -0.390226 -0.937569 -3.647333 2.928439 2.122923 3.962915 4.262243 -4.034278 -0.533708 12.594918 -22.222389 7.721007 1.953954 -50.495178 -5.758666 6.059059 14.865568 -45.339945 2.857276 5.651408 -5.882809 -8.194321 26.677695 -5.831669 -4.320563 48.797385 10.009773 14.830290 -100.292410 66.169895 -68.730235 0.250318 12.724754 5.909699 
0.636660 0.252807 0.970166 97.141990 -2.197362 88.013303 -3.668680 -0.684936 10.845581 -6.020588 -15.948246 16.109566 5.878824 4.998994 -19.807067 0.000000 -0.000000 0.000000 -1.682129 -1.788410 -27.054462 -0.476654 -10.356785 3.254929 6.208788 -10.416637 -2.916092 0.000000 -0.000000 0.000000 1.130027 -3.503462 8.919801 2.429535 -3.437720 -0.573431 -0.954982 -3.493614 2.431809 1.819972 3.765798 3.309324 -3.392285 -1.512362 12.704958 -21.990581 5.686288 2.264068 -49.766952 -7.443724 6.533527 16.106914 -45.773482 0.851280 8.020469 -6.267240 -8.705722 27.034719 -3.419895 -2.777820 47.105475 9.827386 14.945402 -79.593211 68.754791 -46.763960 -1.010172 13.307284 11.563755 
0.683470 0.251255 0.966685 98.577474 -1.711599 87.874455 -2.630389 -1.705205 11.401625 -7.656653 -18.048012 21.391839 4.235485 5.072317 -18.209655 0.000000 -0.000000 0.000000 -2.037495 -1.388725 -28.389066 -0.260579 -11.104206 10.226728 4.893001 -12.135450 -0.073310 0.000000 -0.000000 0.000000 1.859443 -4.161111 9.007212 2.468774 -2.712272 -0.453545 -0.919855 -3.276789 2.161511 1.370164 3.045872 2.015660 -3.154727 -1.584464 13.228558 -22.384559 4.733113 2.140110 -49.436960 -9.086008 7.183392 17.709022 -46.264029 -0.201666 8.982801 -6.371180 -9.430036 27.883298 -1.049339 -1.677674 45.409866 10.193068 15.407575 -50.788639 64.938805 -17.127825 -0.682608 12.620232 17.023599 
0.733498 0.248232 0.967873 98.870431 -0.890318 87.541697 -1.719776 -2.644155 10.858545 -9.482004 -18.413715 28.775512 1.301466 4.766884 -13.347268 0.000000 -0.000000 0.000000 -1.389803 -0.178321 -29.292712 -1.368671 -12.121986 17.623334 1.504011 -14.723829 2.908207 0.000000 -0.000000 0.000000 2.358609 -4.677325 8.542317 2.906077 -1.584418 0.603096 -0.540609 -2.685025 1.556164 0.836622 2.340642 1.147250 -3.170266 -1.353384 13.630334 -23.053935 4.151765 2.232084 -49.629624 -9.624666 8.015361 19.573207 -46.766088 -1.816577 6.325273 -5.807063 -10.954346 28.837775 1.746963 -0.167566 44.087475 11.474655 15.522256 -32.607870 54.018726 -0.918429 3.993600 9.519950 16.065593 
0.788338 0.244130 0.972809 98.139944 -0.005398 87.018937 -0.351247 -2.517497 9.257539 -11.185086 -15.906187 36.419678 -2.938598 3.590722 -2.216798 0.000000 -0.000000 0.000000 -0.628915 0.849558 -28.070228 -0.411431 -11.580671 21.975800 -1.448156 -12.907367 3.295721 0.000000 -0.000000 0.000000 2.756989 -4.485542 8.068667 3.621286 -0.362645 1.519639 -0.083160 -1.908776 0.673708 0.595074 2.496173 1.236385 -3.957508 -1.230391 13.673102 -23.737319 4.964740 1.512003 -50.180111 -8.899871 9.446232 19.757920 -47.665168 -1.030698 1.549278 -5.946672 -11.302594 29.429580 3.200881 0.816711 43.946303 13.253138 14.705659 -23.219447 41.535527 2.696643 9.793063 5.095928 8.441085 
0.842297 0.239442 0.977167 97.317196 0.411400 86.589134 0.438682 -2.261798 5.499002 -12.981294 -13.690512 44.759592 -6.523709 2.138644 12.027161 0.000000 -0.000000 0.000000 0.643553 0.473451 -25.866718 -0.109856 -11.472541 24.858683 -4.440525 -11.626623 0.541457 0.000000 -0.000000 0.000000 2.911995 -3.526580 7.434598 4.172233 0.337109 2.412866 0.195000 -1.247683 -0.144777 0.462600 2.531359 1.689596 -3.909863 -1.269001 13.041249 -23.845166 5.360604 1.356271 -50.333373 -7.196924 10.383427 18.776479 -49.009162 1.199221 -1.681072 -5.037973 -12.175850 29.249503 4.264916 2.024489 45.573834 14.033377 11.653426 -19.856643 28.975500 -5.621775 12.282129 2.885357 -5.744249 
0.894670 0.235830 0.982100 96.856622 1.067193 86.245238 1.033412 -2.195274 0.586827 -14.116099 -11.716006 53.004759 -7.973477 3.516162 22.274781 0.000000 -0.000000 0.000000 1.744565 1.124143 -22.147840 0.723179 -11.673504 24.940247 -6.218664 -13.168731 -2.403601 0.000000 -0.000000 0.000000 3.739761 -2.919345 7.652212 4.365384 1.058827 1.827694 0.218244 -0.982925 -0.045501 -0.268586 0.321130 0.301535 -3.156161 0.588297 14.283259 -24.530438 5.889607 0.612487 -49.847399 -4.669086 9.918383 16.573371 -49.943603 4.328682 -2.964716 -5.218923 -11.446820 28.743491 5.135366 2.285159 47.196217 13.386792 6.513989 -17.358592 17.519821 -19.731102 10.342464 4.718533 -15.862980 
0.944482 0.232005 0.989284 95.918617 1.079840 85.768393 0.676672 -3.138052 -3.604408 -14.714460 -8.882990 58.449276 -5.630593 4.221533 18.910334 0.000000 -0.000000 0.000000 2.929583 1.091779 -17.891859 0.730084 -10.698203 23.937763 -5.662133 -13.244985 -5.397209 0.000000 -0.000000 0.000000 3.703457 -1.533887 7.971825 4.657953 1.056031 1.654812 0.152469 -0.490774 0.160925 0.181714 0.108950 -0.309587 -3.094829 0.298065 13.895964 -25.921225 6.950918 0.318890 -48.813985 -3.578746 9.568069 15.294900 -49.214891 4.729422 -4.514529 -5.859200 -10.382780 30.115834 4.260296 2.124073 47.557914 12.694478 3.344393 -17.532308 9.302021 -29.832602 8.458906 4.753139 -19.365212 
0.993361 0.227901 0.997758 95.092101 0.618914 85.389240 0.136125 -3.979226 -7.275215 -13.669360 -6.141214 60.329835 -3.049864 4.152698 9.749227 0.000000 -0.000000 0.000000 3.580333 0.543738 -13.321166 0.670432 -9.348147 22.415829 -4.749224 -13.424620 -7.779648 0.000000 -0.000000 0.000000 2.984433 -0.021515 8.541258 4.836493 0.690496 0.949399 0.166502 -0.155128 0.702942 0.775394 0.525901 -0.661131 -3.272775 -0.520917 12.804654 -26.247817 9.368578 0.406378 -49.052015 -2.605959 8.974337 13.995927 -47.865031 5.790432 -3.061011 -5.255761 -11.461148 31.394314 1.842967 2.074802 49.382978 11.354126 3.437128 -20.063172 7.785410 -33.983914 3.115992 3.205936 -22.883996 
1.040011 0.224555 1.005495 93.937711 0.072046 85.208860 -0.281671 -4.290753 -10.732270 -13.000863 -4.542205 59.450105 -1.789149 3.978917 3.159535 0.000000 -0.000000 0.000000 4.056333 -0.235672 -8.736097 0.181391 -8.120097 20.207974 -3.599945 -12.881511 -9.520387 0.000000 -0.000000 0.000000 2.401290 1.249067 8.326473 4.764327 -0.032076 0.939697 0.162833 0.023106 1.503936 0.839763 1.378358 -0.385797 -3.121304 -0.654328 11.004822 -26.173691 11.339448 0.800682 -50.042943 -0.752714 7.715019 14.175491 -46.054445 5.278548 -1.424667 -3.943854 -12.486004 31.760902 -0.318071 1.514931 51.614291 9.966687 3.359725 -22.257118 8.476998 -36.695265 -1.634784 2.685009 -25.796536 
1.085873 0.222367 1.011056 92.356832 -0.510073 85.242360 -0.359139 -4.852853 -13.786000 -12.461929 -2.895766 55.659384 -0.486540 4.806639 -1.586496 0.000000 -0.000000 0.000000 4.035975 -1.051639 -4.699289 0.240657 -6.187391 18.069057 -2.827736 -12.586570 -10.784599 0.000000 -0.000000 0.000000 1.996058 2.386031 8.442770 4.543814 -0.702332 0.354181 0.035027 -0.082634 2.037808 0.774733 2.401426 -0.163008 -3.261937 -0.240547 9.979728 -26.133673 13.322055 0.904742 -50.996065 1.772703 6.230408 14.062476 -43.674233 4.821697 -0.436336 -2.721157 -13.396262 31.660786 -2.849633 0.854813 53.586219 8.685320 3.199390 -23.976730 9.939513 -39.179703 -4.278595 2.168807 -28.730397 
